<svg width="497" height="61" viewBox="0 0 497 61" fill="none" xmlns="http://www.w3.org/2000/svg">
<line x1="0.747253" y1="29.0186" x2="50.7473" y2="29.0186" stroke="white" stroke-width="2"/>
<path d="M113.723 16.7426H103.419L95.8033 52.5186H81.9793L89.5953 16.7426H79.4193L80.5713 11.8786H114.811L113.723 16.7426ZM135.426 11.2386C139.096 11.2386 142.061 11.708 144.322 12.6466C146.626 13.5853 148.44 15.036 149.762 16.9986C150.616 18.3213 151.277 19.8146 151.746 21.4786C152.216 23.1426 152.45 25.0626 152.45 27.2386C152.45 29.116 152.28 30.9933 151.938 32.8706C151.597 34.748 151.106 36.5613 150.466 38.3106C149.869 40.0173 149.122 41.6386 148.226 43.1746C147.373 44.668 146.413 45.9906 145.346 47.1426C143.341 49.3186 141.016 50.8546 138.37 51.7506C135.768 52.604 132.546 53.0306 128.706 53.0306C124.994 53.0306 122.008 52.6466 119.746 51.8786C117.485 51.1106 115.693 49.8733 114.37 48.1666C113.432 46.972 112.685 45.4573 112.13 43.6226C111.618 41.788 111.362 39.484 111.362 36.7106C111.362 31.9746 112.194 27.7506 113.858 24.0386C115.565 20.284 117.976 17.3186 121.09 15.1426C122.968 13.82 125.058 12.8386 127.362 12.1986C129.666 11.5586 132.354 11.2386 135.426 11.2386ZM128.194 48.5506C129.176 48.5506 130.093 48.124 130.946 47.2706C131.842 46.3746 132.653 45.2013 133.378 43.7506C134.146 42.2573 134.829 40.572 135.426 38.6946C136.066 36.8173 136.6 34.876 137.026 32.8706C137.453 30.8653 137.773 28.8813 137.986 26.9186C138.242 24.9133 138.37 23.1 138.37 21.4786C138.37 19.26 138.136 17.7453 137.666 16.9346C137.24 16.0813 136.6 15.6546 135.746 15.6546C134.765 15.6546 133.826 16.0813 132.93 16.9346C132.034 17.788 131.181 18.94 130.37 20.3906C129.602 21.7986 128.898 23.4413 128.258 25.3186C127.661 27.1533 127.128 29.052 126.658 31.0146C126.232 32.9773 125.89 34.9186 125.634 36.8386C125.421 38.7586 125.314 40.5293 125.314 42.1506C125.314 44.5826 125.57 46.268 126.082 47.2066C126.637 48.1026 127.341 48.5506 128.194 48.5506ZM156.135 36.1346H176.295L175.015 41.9586H154.791L156.135 36.1346ZM179.497 52.5186L188.137 11.8786H205.353C207.999 11.8786 210.303 12.156 212.265 12.7106C214.271 13.2226 215.913 14.0973 217.193 15.3346C218.516 16.572 219.497 18.1933 220.137 20.1986C220.82 22.204 221.161 24.6573 221.161 27.5586C221.161 30.6733 220.756 33.724 219.945 36.7106C219.177 39.6973 217.876 42.364 216.041 44.7106C214.207 47.0573 211.796 48.956 208.809 50.4066C205.865 51.8146 202.217 52.5186 197.865 52.5186H179.497ZM197.033 48.0386C198.441 48.0386 199.679 47.4626 200.745 46.3106C201.855 45.116 202.793 43.6226 203.561 41.8306C204.372 39.996 205.033 37.9906 205.545 35.8146C206.1 33.596 206.527 31.4626 206.825 29.4146C207.167 27.3666 207.401 25.532 207.529 23.9106C207.7 22.2893 207.785 21.1373 207.785 20.4546C207.785 19.132 207.508 18.108 206.953 17.3826C206.441 16.6146 205.524 16.2306 204.201 16.2306H201.129L194.281 48.0386H197.033ZM248.176 11.2386C251.846 11.2386 254.811 11.708 257.072 12.6466C259.376 13.5853 261.19 15.036 262.512 16.9986C263.366 18.3213 264.027 19.8146 264.496 21.4786C264.966 23.1426 265.2 25.0626 265.2 27.2386C265.2 29.116 265.03 30.9933 264.688 32.8706C264.347 34.748 263.856 36.5613 263.216 38.3106C262.619 40.0173 261.872 41.6386 260.976 43.1746C260.123 44.668 259.163 45.9906 258.096 47.1426C256.091 49.3186 253.766 50.8546 251.12 51.7506C248.518 52.604 245.296 53.0306 241.456 53.0306C237.744 53.0306 234.758 52.6466 232.496 51.8786C230.235 51.1106 228.443 49.8733 227.12 48.1666C226.182 46.972 225.435 45.4573 224.88 43.6226C224.368 41.788 224.112 39.484 224.112 36.7106C224.112 31.9746 224.944 27.7506 226.608 24.0386C228.315 20.284 230.726 17.3186 233.84 15.1426C235.718 13.82 237.808 12.8386 240.112 12.1986C242.416 11.5586 245.104 11.2386 248.176 11.2386ZM240.944 48.5506C241.926 48.5506 242.843 48.124 243.696 47.2706C244.592 46.3746 245.403 45.2013 246.128 43.7506C246.896 42.2573 247.579 40.572 248.176 38.6946C248.816 36.8173 249.35 34.876 249.776 32.8706C250.203 30.8653 250.523 28.8813 250.736 26.9186C250.992 24.9133 251.12 23.1 251.12 21.4786C251.12 19.26 250.886 17.7453 250.416 16.9346C249.99 16.0813 249.35 15.6546 248.496 15.6546C247.515 15.6546 246.576 16.0813 245.68 16.9346C244.784 17.788 243.931 18.94 243.12 20.3906C242.352 21.7986 241.648 23.4413 241.008 25.3186C240.411 27.1533 239.878 29.052 239.408 31.0146C238.982 32.9773 238.64 34.9186 238.384 36.8386C238.171 38.7586 238.064 40.5293 238.064 42.1506C238.064 44.5826 238.32 46.268 238.832 47.2066C239.387 48.1026 240.091 48.5506 240.944 48.5506ZM312.047 52.5186H297.071L289.967 23.1426L283.695 52.5186H277.935L286.575 11.8786H301.871L308.591 41.6386L314.927 11.8786H320.815L312.047 52.5186ZM345.426 11.2386C349.096 11.2386 352.061 11.708 354.322 12.6466C356.626 13.5853 358.44 15.036 359.762 16.9986C360.616 18.3213 361.277 19.8146 361.746 21.4786C362.216 23.1426 362.45 25.0626 362.45 27.2386C362.45 29.116 362.28 30.9933 361.938 32.8706C361.597 34.748 361.106 36.5613 360.466 38.3106C359.869 40.0173 359.122 41.6386 358.226 43.1746C357.373 44.668 356.413 45.9906 355.346 47.1426C353.341 49.3186 351.016 50.8546 348.37 51.7506C345.768 52.604 342.546 53.0306 338.706 53.0306C334.994 53.0306 332.008 52.6466 329.746 51.8786C327.485 51.1106 325.693 49.8733 324.37 48.1666C323.432 46.972 322.685 45.4573 322.13 43.6226C321.618 41.788 321.362 39.484 321.362 36.7106C321.362 31.9746 322.194 27.7506 323.858 24.0386C325.565 20.284 327.976 17.3186 331.09 15.1426C332.968 13.82 335.058 12.8386 337.362 12.1986C339.666 11.5586 342.354 11.2386 345.426 11.2386ZM338.194 48.5506C339.176 48.5506 340.093 48.124 340.946 47.2706C341.842 46.3746 342.653 45.2013 343.378 43.7506C344.146 42.2573 344.829 40.572 345.426 38.6946C346.066 36.8173 346.6 34.876 347.026 32.8706C347.453 30.8653 347.773 28.8813 347.986 26.9186C348.242 24.9133 348.37 23.1 348.37 21.4786C348.37 19.26 348.136 17.7453 347.666 16.9346C347.24 16.0813 346.6 15.6546 345.746 15.6546C344.765 15.6546 343.826 16.0813 342.93 16.9346C342.034 17.788 341.181 18.94 340.37 20.3906C339.602 21.7986 338.898 23.4413 338.258 25.3186C337.661 27.1533 337.128 29.052 336.658 31.0146C336.232 32.9773 335.89 34.9186 335.634 36.8386C335.421 38.7586 335.314 40.5293 335.314 42.1506C335.314 44.5826 335.57 46.268 336.082 47.2066C336.637 48.1026 337.341 48.5506 338.194 48.5506ZM366.552 11.8786H382.168L383.256 39.5906L393.944 11.8786H406.616L408.28 39.5906L419.032 11.8786H425.752L409.944 52.5186H395.544L394.2 29.5426L384.6 52.5186H369.24L366.552 11.8786Z" fill="white"/>
<line x1="446.747" y1="29.0186" x2="496.747" y2="29.0186" stroke="white" stroke-width="2"/>
</svg>
